<mxfile host="app.diagrams.net" agent="Mozilla/5.0 (Windows NT 10.0; Win64; x64) AppleWebKit/537.36 (KHTML, like Gecko) Chrome/131.0.0.0 Safari/537.36" version="25.0.3">
  <diagram name="Page-1" id="u2tIbMp8UvbzlLTxnLox">
    <mxGraphModel dx="1434" dy="746" grid="1" gridSize="10" guides="1" tooltips="1" connect="1" arrows="1" fold="1" page="1" pageScale="1" pageWidth="850" pageHeight="1100" math="0" shadow="0">
      <root>
        <mxCell id="0" />
        <mxCell id="1" parent="0" />
        <mxCell id="LNxij7_ir9_zZzLMy2Dt-22" style="edgeStyle=orthogonalEdgeStyle;rounded=0;orthogonalLoop=1;jettySize=auto;html=1;entryX=0.5;entryY=0;entryDx=0;entryDy=0;" edge="1" parent="1" source="LNxij7_ir9_zZzLMy2Dt-1" target="LNxij7_ir9_zZzLMy2Dt-3">
          <mxGeometry relative="1" as="geometry" />
        </mxCell>
        <mxCell id="LNxij7_ir9_zZzLMy2Dt-1" value="&lt;font style=&quot;font-size: 24px;&quot;&gt;start&lt;/font&gt;" style="strokeWidth=2;html=1;shape=mxgraph.flowchart.start_1;whiteSpace=wrap;" vertex="1" parent="1">
          <mxGeometry x="375" y="40" width="100" height="60" as="geometry" />
        </mxCell>
        <mxCell id="LNxij7_ir9_zZzLMy2Dt-2" value="&lt;font style=&quot;font-size: 24px;&quot;&gt;end&lt;/font&gt;" style="strokeWidth=2;html=1;shape=mxgraph.flowchart.start_1;whiteSpace=wrap;" vertex="1" parent="1">
          <mxGeometry x="375" y="580" width="100" height="60" as="geometry" />
        </mxCell>
        <mxCell id="LNxij7_ir9_zZzLMy2Dt-23" style="edgeStyle=orthogonalEdgeStyle;rounded=0;orthogonalLoop=1;jettySize=auto;html=1;entryX=0.5;entryY=0;entryDx=0;entryDy=0;" edge="1" parent="1" source="LNxij7_ir9_zZzLMy2Dt-3" target="LNxij7_ir9_zZzLMy2Dt-4">
          <mxGeometry relative="1" as="geometry" />
        </mxCell>
        <mxCell id="LNxij7_ir9_zZzLMy2Dt-3" value="file = fgets(&quot;a15-9.txt)" style="rounded=1;whiteSpace=wrap;html=1;absoluteArcSize=1;arcSize=14;strokeWidth=2;" vertex="1" parent="1">
          <mxGeometry x="363" y="140" width="125" height="70" as="geometry" />
        </mxCell>
        <mxCell id="LNxij7_ir9_zZzLMy2Dt-8" style="edgeStyle=orthogonalEdgeStyle;rounded=0;orthogonalLoop=1;jettySize=auto;html=1;entryX=0.5;entryY=0;entryDx=0;entryDy=0;" edge="1" parent="1" source="LNxij7_ir9_zZzLMy2Dt-4" target="LNxij7_ir9_zZzLMy2Dt-6">
          <mxGeometry relative="1" as="geometry" />
        </mxCell>
        <mxCell id="LNxij7_ir9_zZzLMy2Dt-4" value="if(fgets(buffer, sizeof(buffer), file)" style="rhombus;whiteSpace=wrap;html=1;" vertex="1" parent="1">
          <mxGeometry x="318" y="260" width="215" height="140" as="geometry" />
        </mxCell>
        <mxCell id="LNxij7_ir9_zZzLMy2Dt-9" style="edgeStyle=orthogonalEdgeStyle;rounded=0;orthogonalLoop=1;jettySize=auto;html=1;entryX=0.5;entryY=0;entryDx=0;entryDy=0;" edge="1" parent="1" source="LNxij7_ir9_zZzLMy2Dt-6" target="LNxij7_ir9_zZzLMy2Dt-7">
          <mxGeometry relative="1" as="geometry" />
        </mxCell>
        <mxCell id="LNxij7_ir9_zZzLMy2Dt-6" value="decode(buffer)" style="verticalLabelPosition=bottom;verticalAlign=top;html=1;shape=process;whiteSpace=wrap;rounded=1;size=0.14;arcSize=6;" vertex="1" parent="1">
          <mxGeometry x="620" y="370" width="100" height="60" as="geometry" />
        </mxCell>
        <mxCell id="LNxij7_ir9_zZzLMy2Dt-10" style="edgeStyle=orthogonalEdgeStyle;rounded=0;orthogonalLoop=1;jettySize=auto;html=1;entryX=1;entryY=1;entryDx=0;entryDy=0;" edge="1" parent="1" source="LNxij7_ir9_zZzLMy2Dt-7" target="LNxij7_ir9_zZzLMy2Dt-4">
          <mxGeometry relative="1" as="geometry" />
        </mxCell>
        <mxCell id="LNxij7_ir9_zZzLMy2Dt-7" value="output&lt;div&gt;&quot;Output: &quot;, buffer&lt;/div&gt;" style="shape=parallelogram;perimeter=parallelogramPerimeter;whiteSpace=wrap;html=1;fixedSize=1;" vertex="1" parent="1">
          <mxGeometry x="610" y="490" width="120" height="60" as="geometry" />
        </mxCell>
        <mxCell id="LNxij7_ir9_zZzLMy2Dt-11" style="edgeStyle=orthogonalEdgeStyle;rounded=0;orthogonalLoop=1;jettySize=auto;html=1;entryX=0.5;entryY=0;entryDx=0;entryDy=0;entryPerimeter=0;" edge="1" parent="1" source="LNxij7_ir9_zZzLMy2Dt-4" target="LNxij7_ir9_zZzLMy2Dt-2">
          <mxGeometry relative="1" as="geometry" />
        </mxCell>
        <mxCell id="LNxij7_ir9_zZzLMy2Dt-16" style="edgeStyle=orthogonalEdgeStyle;rounded=0;orthogonalLoop=1;jettySize=auto;html=1;entryX=0.5;entryY=0;entryDx=0;entryDy=0;" edge="1" parent="1" source="LNxij7_ir9_zZzLMy2Dt-12" target="LNxij7_ir9_zZzLMy2Dt-13">
          <mxGeometry relative="1" as="geometry" />
        </mxCell>
        <mxCell id="LNxij7_ir9_zZzLMy2Dt-12" value="&lt;font style=&quot;font-size: 16px;&quot;&gt;decode(*str)&lt;/font&gt;" style="strokeWidth=2;html=1;shape=mxgraph.flowchart.start_1;whiteSpace=wrap;" vertex="1" parent="1">
          <mxGeometry x="880" y="40" width="100" height="60" as="geometry" />
        </mxCell>
        <mxCell id="LNxij7_ir9_zZzLMy2Dt-17" style="edgeStyle=orthogonalEdgeStyle;rounded=0;orthogonalLoop=1;jettySize=auto;html=1;entryX=0.5;entryY=0;entryDx=0;entryDy=0;" edge="1" parent="1" source="LNxij7_ir9_zZzLMy2Dt-13" target="LNxij7_ir9_zZzLMy2Dt-14">
          <mxGeometry relative="1" as="geometry" />
        </mxCell>
        <mxCell id="LNxij7_ir9_zZzLMy2Dt-13" value="while *str" style="rhombus;whiteSpace=wrap;html=1;" vertex="1" parent="1">
          <mxGeometry x="856.25" y="160" width="147.5" height="90" as="geometry" />
        </mxCell>
        <mxCell id="LNxij7_ir9_zZzLMy2Dt-18" style="edgeStyle=orthogonalEdgeStyle;rounded=0;orthogonalLoop=1;jettySize=auto;html=1;entryX=0.5;entryY=0;entryDx=0;entryDy=0;" edge="1" parent="1" source="LNxij7_ir9_zZzLMy2Dt-14" target="LNxij7_ir9_zZzLMy2Dt-15">
          <mxGeometry relative="1" as="geometry" />
        </mxCell>
        <mxCell id="LNxij7_ir9_zZzLMy2Dt-14" value="(*str =&amp;gt; &quot;A&quot; &amp;amp;&amp;amp; *str &amp;lt;= &quot;Z&quot;" style="rhombus;whiteSpace=wrap;html=1;" vertex="1" parent="1">
          <mxGeometry x="1030" y="230" width="147.5" height="90" as="geometry" />
        </mxCell>
        <mxCell id="LNxij7_ir9_zZzLMy2Dt-19" style="edgeStyle=orthogonalEdgeStyle;rounded=0;orthogonalLoop=1;jettySize=auto;html=1;entryX=1;entryY=1;entryDx=0;entryDy=0;" edge="1" parent="1" source="LNxij7_ir9_zZzLMy2Dt-15" target="LNxij7_ir9_zZzLMy2Dt-13">
          <mxGeometry relative="1" as="geometry" />
        </mxCell>
        <mxCell id="LNxij7_ir9_zZzLMy2Dt-15" value="*str = (*str - &quot;A&quot; + 6) % 26 +&quot;A&quot;" style="rounded=1;whiteSpace=wrap;html=1;absoluteArcSize=1;arcSize=14;strokeWidth=2;" vertex="1" parent="1">
          <mxGeometry x="1041.25" y="350" width="125" height="70" as="geometry" />
        </mxCell>
        <mxCell id="LNxij7_ir9_zZzLMy2Dt-20" value="&lt;font style=&quot;font-size: 24px;&quot;&gt;end&lt;/font&gt;" style="strokeWidth=2;html=1;shape=mxgraph.flowchart.start_1;whiteSpace=wrap;" vertex="1" parent="1">
          <mxGeometry x="880" y="420" width="100" height="60" as="geometry" />
        </mxCell>
        <mxCell id="LNxij7_ir9_zZzLMy2Dt-21" style="edgeStyle=orthogonalEdgeStyle;rounded=0;orthogonalLoop=1;jettySize=auto;html=1;entryX=0.5;entryY=0;entryDx=0;entryDy=0;entryPerimeter=0;" edge="1" parent="1" source="LNxij7_ir9_zZzLMy2Dt-13" target="LNxij7_ir9_zZzLMy2Dt-20">
          <mxGeometry relative="1" as="geometry" />
        </mxCell>
      </root>
    </mxGraphModel>
  </diagram>
</mxfile>
